<svg xmlns="http://www.w3.org/2000/svg" width="220.606" height="70.919" viewBox="0 0 220.606 70.919">
  <g id="header_logo" transform="translate(8487 3619)">
    <g id="Group_4992" data-name="Group 4992" transform="translate(-8486.999 -3619)">
      <path id="Path_3366" data-name="Path 3366" d="M79.2,64.977a29.687,29.687,0,0,1,0-59.039V0a35.59,35.59,0,0,0,0,70.912ZM85.11,0V5.937a29.687,29.687,0,0,1,0,59.044v5.937A35.59,35.59,0,0,0,85.11,0Z" transform="translate(-46.7)" fill="#ee2438"/>
      <path id="Path_3367" data-name="Path 3367" d="M125.575,63.916a17.708,17.708,0,0,1-34.925,0H84.68a23.615,23.615,0,0,0,46.865,0Zm-34.924-5.91a17.708,17.708,0,0,1,34.925,0h5.971a23.615,23.615,0,0,0-46.865,0Z" transform="translate(-72.656 -25.505)" fill="#ee2438"/>
      <path id="Path_3368" data-name="Path 3368" d="M133.188,92.4c-.13,0-.256,0-.386-.013s-.256-.022-.386-.037-.256-.038-.383-.064-.253-.054-.377-.089-.247-.07-.371-.11-.244-.085-.36-.136-.237-.1-.351-.158-.231-.117-.342-.183-.222-.133-.329-.2-.208-.146-.312-.225-.2-.161-.3-.244-.19-.174-.281-.266-.18-.186-.266-.281-.168-.2-.247-.3-.155-.208-.225-.313-.14-.216-.208-.329-.127-.225-.183-.342-.11-.234-.158-.351-.095-.241-.136-.36-.079-.247-.11-.371-.064-.25-.089-.377-.048-.253-.064-.383-.028-.256-.038-.386-.013-.256-.013-.386,0-.256.013-.386.022-.256.038-.386.037-.256.064-.383.054-.253.089-.377.07-.247.11-.371.085-.244.136-.36.1-.238.158-.351.117-.228.183-.342.133-.222.208-.329.146-.208.225-.312.161-.2.247-.3.174-.19.266-.281.186-.18.281-.266a3.613,3.613,0,0,1,.3-.244c.105-.076.208-.155.313-.225s.219-.14.329-.2.225-.127.342-.183.234-.11.351-.158.241-.095.36-.136.247-.079.371-.11.25-.064.377-.089.253-.048.383-.064.256-.028.386-.038.256-.013.386-.013c.1,0,.193,0,.292.006s.193.012.289.022.193.022.289.034.19.031.285.051.19.042.281.064.186.051.278.076.183.057.275.092.18.067.269.1.177.076.266.117.174.085.259.13.168.092.253.143.165.1.244.155.158.11.237.168.155.117.228.177.149.124.219.19.143.133.208.2.136.14.2.208.127.146.19.219.12.152.177.228.114.155.168.237.1.161.155.244.1.168.143.253.089.171.13.259.079.177.117.266.073.18.1.269.064.183.092.275.054.186.076.278.045.186.064.281.034.19.051.285.025.193.034.289.016.193.022.289.006.193.006.292,0,.193-.006.292-.012.193-.022.289-.022.193-.034.289-.031.19-.051.285-.042.19-.064.281-.051.186-.076.278-.057.183-.092.275-.067.18-.1.269-.076.177-.117.266-.085.174-.13.259-.092.171-.143.253-.1.165-.155.244-.11.158-.168.237-.117.155-.177.228-.124.149-.19.219-.133.143-.2.208-.14.136-.208.2-.146.127-.219.19-.152.12-.228.177-.155.114-.237.168-.161.1-.244.155-.168.1-.253.143-.171.089-.259.13-.177.079-.266.117-.18.073-.269.1-.183.064-.275.092-.186.054-.278.076-.186.045-.281.064-.19.034-.285.051-.193.025-.289.034-.193.016-.289.022-.193.006-.292.006h0Zm0-17.728a11.818,11.818,0,1,0,11.818,11.818A11.818,11.818,0,0,0,133.188,74.67Z" transform="translate(-97.732 -51.032)" fill="#ee2438"/>
    </g>
    <g id="Group_5078" data-name="Group 5078" transform="translate(0 1.708)">
      <g id="Group_4991" data-name="Group 4991" transform="translate(-8388.466 -3575.492)">
        <path id="Path_3348" data-name="Path 3348" d="M37.681,322.41c0,1.024-.8,1.619-2.334,1.619H32.38v-5.96h2.8c1.43,0,2.2.6,2.2,1.55a1.421,1.421,0,0,1-.766,1.31,1.47,1.47,0,0,1,1.076,1.48Zm-4.188-3.474v1.642h1.569c.766,0,1.2-.273,1.2-.816s-.434-.825-1.2-.825ZM36.57,322.3c0-.6-.452-.863-1.287-.863H33.491v1.72h1.79c.835,0,1.287-.265,1.287-.863Z" transform="translate(-32.38 -317.684)" fill="#ee2438"/>
        <path id="Path_3349" data-name="Path 3349" d="M52.01,323.092v.926H47.54V318.06H51.9v.926H48.651v1.55H51.53v.913H48.651v1.642h3.363Z" transform="translate(-40.547 -317.679)" fill="#ee2438"/>
        <path id="Path_3350" data-name="Path 3350" d="M59.913,323.289l.382-.863a3.307,3.307,0,0,0,1.97.661c.926,0,1.323-.332,1.323-.775,0-1.287-3.543-.443-3.543-2.658,0-.964.766-1.781,2.4-1.781a3.8,3.8,0,0,1,1.984.529l-.351.859a3.33,3.33,0,0,0-1.642-.471c-.918,0-1.3.36-1.3.807,0,1.269,3.533.443,3.533,2.634,0,.955-.775,1.771-2.413,1.771a3.868,3.868,0,0,1-2.352-.716Z" transform="translate(-47.209 -317.575)" fill="#ee2438"/>
        <path id="Path_3351" data-name="Path 3351" d="M73.864,319H71.89v-.937h5.06V319H74.976v5.027H73.869V319Z" transform="translate(-53.663 -317.679)" fill="#ee2438"/>
        <path id="Path_3352" data-name="Path 3352" d="M93.077,318.987V320.8h2.879v.937H93.077v2.283H91.97v-5.96h4.355v.926H93.081Z" transform="translate(-64.48 -317.679)" fill="#ee2438"/>
        <path id="Path_3353" data-name="Path 3353" d="M104.83,318.06h1.107v5.96H104.83Z" transform="translate(-71.408 -317.679)" fill="#ee2438"/>
        <path id="Path_3354" data-name="Path 3354" d="M117.121,318.06v5.96h-.913l-3.289-4.036v4.036h-1.1v-5.96h.913l3.293,4.036V318.06Z" transform="translate(-75.172 -317.679)" fill="#ee2438"/>
        <path id="Path_3355" data-name="Path 3355" d="M130.776,322.651H127.8l-.586,1.38H126.07l2.686-5.96h1.089l2.689,5.96h-1.158l-.6-1.38Zm-.364-.868-1.126-2.606-1.117,2.606Z" transform="translate(-82.849 -317.683)" fill="#ee2438"/>
        <path id="Path_3356" data-name="Path 3356" d="M148.121,318.06v5.96h-.913l-3.289-4.036v4.036h-1.1v-5.96h.913l3.293,4.036V318.06Z" transform="translate(-91.872 -317.679)" fill="#ee2438"/>
        <path id="Path_3357" data-name="Path 3357" d="M157.956,320.938a3.223,3.223,0,0,1,5.55-2.072l-.716.673a2.1,2.1,0,1,0,0,2.785l.716.683a3.227,3.227,0,0,1-5.556-2.072Z" transform="translate(-100.023 -317.577)" fill="#ee2438"/>
        <path id="Path_3358" data-name="Path 3358" d="M173.41,318.06h1.107v5.96H173.41Z" transform="translate(-108.351 -317.679)" fill="#ee2438"/>
        <path id="Path_3359" data-name="Path 3359" d="M185.7,318.06v5.96h-.913l-3.289-4.036v4.036h-1.1v-5.96h.913L184.6,322.1V318.06Z" transform="translate(-112.116 -317.679)" fill="#ee2438"/>
        <path id="Path_3360" data-name="Path 3360" d="M200.039,320.873h1.048v2.381a3.773,3.773,0,0,1-2.334.757,3.072,3.072,0,1,1,2.413-5.167l-.7.683a2.227,2.227,0,0,0-1.642-.683,2.1,2.1,0,1,0-.009,4.188,2.369,2.369,0,0,0,1.228-.31V320.87Z" transform="translate(-120.273 -317.576)" fill="#ee2438"/>
        <path id="Path_3361" data-name="Path 3361" d="M217.1,321.009a3.215,3.215,0,1,1,3.211,3.068,3.053,3.053,0,0,1-3.211-3.068Zm5.3,0a2.094,2.094,0,1,0-2.094,2.094,2.031,2.031,0,0,0,2.094-2.094Z" transform="translate(-131.887 -317.648)" fill="#ee2438"/>
        <path id="Path_3362" data-name="Path 3362" d="M235.787,318.987V320.8h2.879v.937h-2.879v2.283H234.68v-5.96h4.35v.926Z" transform="translate(-141.357 -317.679)" fill="#ee2438"/>
        <path id="Path_3363" data-name="Path 3363" d="M248.647,318.987V320.8h2.879v.937h-2.879v2.283H247.54v-5.96h4.35v.926Z" transform="translate(-148.284 -317.679)" fill="#ee2438"/>
        <path id="Path_3364" data-name="Path 3364" d="M264.88,323.092v.926h-4.47V318.06h4.352v.926H261.52v1.55H264.4v.913H261.52v1.642Z" transform="translate(-155.216 -317.679)" fill="#ee2438"/>
        <path id="Path_3365" data-name="Path 3365" d="M277.783,324.03l-1.218-1.749a1.939,1.939,0,0,1-.23.009h-1.347v1.74H273.88v-5.96h2.454c1.569,0,2.537.8,2.537,2.117a1.905,1.905,0,0,1-1.269,1.882l1.371,1.961Zm-1.5-5.027h-1.3v2.381h1.3c.968,0,1.471-.443,1.471-1.191s-.5-1.187-1.467-1.187Z" transform="translate(-162.473 -317.684)" fill="#ee2438"/>
      </g>
      <g id="Group_4993" data-name="Group 4993" transform="translate(-8394 -3601.708)">
        <path id="Path_3369" data-name="Path 3369" d="M14.94,256.91v16.814H11.816v-7.2H3.123v7.2H0V256.91H3.123v6.94h8.693v-6.94Z" transform="translate(0 -255.838)" fill="#0a2540"/>
        <path id="Path_3370" data-name="Path 3370" d="M48.98,264.961a8.61,8.61,0,0,1,9.054-8.648,8.657,8.657,0,1,1,0,17.3,8.61,8.61,0,0,1-9.054-8.648Zm14.965,0a5.911,5.911,0,1,0-5.911,5.911,5.731,5.731,0,0,0,5.911-5.911Z" transform="translate(-29.287 -255.482)" fill="#0a2540"/>
        <path id="Path_3371" data-name="Path 3371" d="M105.452,259.553H99.88v-2.646h14.265v2.646h-5.572v14.172h-3.123V259.553Z" transform="translate(-59.723 -255.839)" fill="#0a2540"/>
        <path id="Path_3372" data-name="Path 3372" d="M142.37,271.584l1.082-2.425A9.313,9.313,0,0,0,149,271.011c2.617,0,3.723-.937,3.723-2.187,0-3.626-9.991-1.25-9.991-7.494,0-2.713,2.163-5.018,6.775-5.018a10.632,10.632,0,0,1,5.6,1.487l-.986,2.425a9.348,9.348,0,0,0-4.63-1.323c-2.593,0-3.651,1.009-3.651,2.283,0,3.572,9.967,1.25,9.967,7.421,0,2.689-2.187,5-6.8,5a10.833,10.833,0,0,1-6.63-2.019Z" transform="translate(-85.13 -255.479)" fill="#0a2540"/>
        <path id="Path_3373" data-name="Path 3373" d="M201.126,262.882c0,3.7-2.738,5.978-7.157,5.978h-3.8v4.852H187.05V256.9h6.915c4.419,0,7.157,2.26,7.157,5.978Zm-3.149,0c0-2.117-1.416-3.336-4.153-3.336h-3.651v6.678h3.651c2.738,0,4.153-1.226,4.153-3.336Z" transform="translate(-111.847 -255.832)" fill="#0a2540"/>
        <path id="Path_3374" data-name="Path 3374" d="M231.022,265.161a9.063,9.063,0,1,1,9.054,8.648,8.61,8.61,0,0,1-9.054-8.648Zm14.965,0a5.911,5.911,0,1,0-5.91,5.911,5.731,5.731,0,0,0,5.91-5.911Z" transform="translate(-138.141 -255.682)" fill="#0a2540"/>
        <path id="Path_3375" data-name="Path 3375" d="M287.482,259.553H281.91v-2.646h14.265v2.646H290.6v14.172h-3.123V259.553Z" transform="translate(-168.568 -255.839)" fill="#0a2540"/>
      </g>
    </g>
    <rect id="Rectangle_416" data-name="Rectangle 416" width="2" height="44" transform="translate(-8406 -3606)" fill="#eb1935"/>
  </g>
</svg>
